#N canvas 626 41 810 764 10;
#X obj 109 374 biquad.mmb~;
#X obj 430 244 biquad.mmb~;
#X obj 382 434 vu 15 120 empty empty -1 -8 0 10 -66577 -1 1 0;
#X obj 364 356 env~;
#X obj 279 437 vu 15 120 empty empty -1 -8 0 10 -66577 -1 1 0;
#X obj 261 359 env~;
#X obj 263 391 - 100;
#X obj -41 24 adc~;
#X msg 230 48 \; pd dsp \$1;
#X obj 230 23 tgl 15 0 empty empty empty 17 7 0 10 -262144 -1 -1 1
1;
#X obj 6 225 vu 15 120 empty empty -1 -8 0 10 -66577 -1 1 0;
#X obj -12 147 env~;
#X obj -10 179 - 100;
#X obj -45 223 vu 15 120 empty empty -1 -8 0 10 -66577 -1 1 0;
#X obj -63 145 env~;
#X obj -61 177 - 100;
#X obj 177 242 filtercoeff.mmb~;
#X obj 71 123 loadbang;
#X obj 194 189 + 100;
#X obj 194 215 dbtorms;
#X msg 193 150 10;
#X floatatom 193 169 5 0 0 0 - - -;
#X floatatom 125 193 5 0 0 0 - - -;
#X msg 83 163 1000;
#X msg 124 159 10000;
#X floatatom 429 191 5 0 0 0 - - -;
#X floatatom 466 192 5 0 0 0 - - -;
#X floatatom 521 195 5 0 0 0 - - -;
#X floatatom 560 194 5 0 0 0 - - -;
#X floatatom 598 196 5 0 0 0 - - -;
#X msg 486 114 0.830982;
#X msg 504 146 0.911575;
#X msg 573 146 -1.82315;
#X msg 652 146 0.911575;
#X obj 366 387 - 100;
#X obj 450 57 loadbang;
#X msg 410 114 -1.81533;
#X msg 287 213 highpass;
#X connect 0 0 5 0;
#X connect 1 0 3 0;
#X connect 3 0 34 0;
#X connect 5 0 6 0;
#X connect 6 0 4 0;
#X connect 7 0 14 0;
#X connect 7 0 0 0;
#X connect 7 1 1 0;
#X connect 7 1 11 0;
#X connect 9 0 8 0;
#X connect 11 0 12 0;
#X connect 12 0 10 0;
#X connect 14 0 15 0;
#X connect 15 0 13 0;
#X connect 16 0 0 1;
#X connect 16 1 0 2;
#X connect 16 2 0 3;
#X connect 17 0 20 0;
#X connect 18 0 19 0;
#X connect 19 0 16 1;
#X connect 20 0 21 0;
#X connect 21 0 18 0;
#X connect 22 0 16 0;
#X connect 23 0 22 0;
#X connect 24 0 22 0;
#X connect 25 0 1 1;
#X connect 26 0 1 2;
#X connect 27 0 1 3;
#X connect 28 0 1 4;
#X connect 29 0 1 5;
#X connect 30 0 26 0;
#X connect 31 0 27 0;
#X connect 32 0 28 0;
#X connect 33 0 29 0;
#X connect 34 0 2 0;
#X connect 35 0 36 0;
#X connect 35 0 30 0;
#X connect 35 0 32 0;
#X connect 35 0 33 0;
#X connect 36 0 25 0;
#X connect 37 0 16 3;
