#N canvas 715 22 1509 866 10;
#X text 755 201 octave_1;
#X text 817 201 bass;
#X text 1012 201 mid;
#X text 1111 201 presence;
#X text 1173 201 top;
#X text 1207 201 sizzle;
#X text 693 201 sub_bass;
#X text 862 201 upper_bass;
#X text 939 201 lower_mid;
#X text 1044 201 upper_mid;
#X obj 298 438 lop~ 80;
#X obj 298 392 hip~ 40;
#X obj 371 392 hip~ 80;
#X obj 371 438 lop~ 250;
#X obj 465 392 hip~ 250;
#X obj 465 438 lop~ 400;
#X obj 545 392 hip~ 400;
#X obj 545 438 lop~ 600;
#X obj 631 390 hip~ 600;
#X obj 631 436 lop~ 2000;
#X obj 709 390 hip~ 2000;
#X obj 709 436 lop~ 4000;
#X obj 809 390 hip~ 4000;
#X obj 809 436 lop~ 6000;
#X obj 901 390 hip~ 6000;
#X obj 901 436 lop~ 10000;
#X obj 994 390 hip~ 10000;
#X obj 181 438 lop~ 40;
#X obj 629 223 inlet~;
#X obj 630 634 outlet~;
#X obj 258 551 *~ 1;
#X obj 337 551 *~ 1;
#X obj 399 551 *~ 1;
#X obj 465 551 *~ 1;
#X obj 545 551 *~ 1;
#X obj 631 549 *~ 1;
#X obj 709 549 *~ 1;
#X obj 809 549 *~ 1;
#X obj 901 549 *~ 1;
#X obj 995 549 *~ 1;
#X floatatom 279 490 5 0 0 0 - - -;
#X floatatom 358 490 5 0 0 0 - - -;
#X text 627 201 audio;
#X floatatom 420 490 5 0 0 0 - - -;
#X floatatom 486 490 5 0 0 0 - - -;
#X floatatom 566 490 5 0 0 0 - - -;
#X floatatom 652 490 5 0 0 0 - - -;
#X floatatom 730 490 5 0 0 0 - - -;
#X floatatom 830 490 5 0 0 0 - - -;
#X floatatom 922 490 5 0 0 0 - - -;
#X floatatom 1016 490 5 0 0 0 - - -;
#X obj 703 224 inlet;
#X obj 761 224 inlet;
#X obj 811 224 inlet;
#X obj 875 224 inlet;
#X obj 944 224 inlet;
#X obj 1001 224 inlet;
#X obj 1058 224 inlet;
#X obj 1115 224 inlet;
#X obj 1164 224 inlet;
#X obj 1217 224 inlet;
#X text 920 167 The amplitude factor:;
#X obj 1281 224 inlet;
#X text 1276 201 master;
#X text 19 10 Multiband EQ \, operating over "psychoaccoustic" ranges.
This is a basic proto: I'm not taking into account phasing \, or the
problem with boosting around a range defined by a high and lowpass
filter. Designed to be run _in_parallel_ with a straight passthrough
adc -> dac \, so we can "boost" these frequencies. This will be trashed/updated
with proper shelf filters etc.;
#X obj 279 520 * 0.02;
#X obj 358 520 * 0.02;
#X obj 420 520 * 0.02;
#X obj 486 520 * 0.02;
#X obj 566 520 * 0.02;
#X obj 652 520 * 0.02;
#X obj 730 520 * 0.02;
#X obj 830 520 * 0.02;
#X obj 922 520 * 0.02;
#X obj 1016 520 * 0.02;
#X msg 82 286 50;
#X obj 82 254 loadbang;
#X obj 1240 299 * 0.02;
#X obj 385 717 peakvu;
#X obj 435 717 peakvu;
#X obj 485 716 peakvu;
#X obj 536 716 peakvu;
#X obj 586 716 peakvu;
#X obj 636 716 peakvu;
#X obj 686 716 peakvu;
#X obj 736 716 peakvu;
#X obj 786 716 peakvu;
#X obj 836 716 peakvu;
#X obj 890 717 diff~;
#X obj 1338 198 loadbang;
#X floatatom 1338 242 5 0 0 0 - - -;
#X obj 630 603 *~ 1;
#X msg 1338 220 27;
#X connect 10 0 31 0;
#X connect 11 0 10 0;
#X connect 12 0 13 0;
#X connect 13 0 32 0;
#X connect 14 0 15 0;
#X connect 15 0 33 0;
#X connect 16 0 17 0;
#X connect 17 0 34 0;
#X connect 18 0 19 0;
#X connect 19 0 35 0;
#X connect 20 0 21 0;
#X connect 21 0 36 0;
#X connect 22 0 23 0;
#X connect 23 0 37 0;
#X connect 24 0 25 0;
#X connect 25 0 38 0;
#X connect 26 0 39 0;
#X connect 27 0 30 0;
#X connect 28 0 11 0;
#X connect 28 0 12 0;
#X connect 28 0 14 0;
#X connect 28 0 16 0;
#X connect 28 0 18 0;
#X connect 28 0 20 0;
#X connect 28 0 22 0;
#X connect 28 0 24 0;
#X connect 28 0 26 0;
#X connect 28 0 27 0;
#X connect 28 0 88 1;
#X connect 30 0 78 0;
#X connect 30 0 91 0;
#X connect 31 0 79 0;
#X connect 31 0 91 0;
#X connect 32 0 80 0;
#X connect 32 0 91 0;
#X connect 33 0 81 0;
#X connect 33 0 91 0;
#X connect 34 0 82 0;
#X connect 34 0 91 0;
#X connect 35 0 83 0;
#X connect 35 0 91 0;
#X connect 36 0 84 0;
#X connect 36 0 91 0;
#X connect 37 0 85 0;
#X connect 37 0 91 0;
#X connect 38 0 86 0;
#X connect 38 0 91 0;
#X connect 39 0 87 0;
#X connect 39 0 91 0;
#X connect 40 0 65 0;
#X connect 41 0 66 0;
#X connect 43 0 67 0;
#X connect 44 0 68 0;
#X connect 45 0 69 0;
#X connect 46 0 70 0;
#X connect 47 0 71 0;
#X connect 48 0 72 0;
#X connect 49 0 73 0;
#X connect 50 0 74 0;
#X connect 51 0 40 0;
#X connect 52 0 41 0;
#X connect 53 0 43 0;
#X connect 54 0 44 0;
#X connect 55 0 45 0;
#X connect 56 0 46 0;
#X connect 57 0 47 0;
#X connect 58 0 48 0;
#X connect 59 0 49 0;
#X connect 60 0 50 0;
#X connect 62 0 77 0;
#X connect 65 0 30 1;
#X connect 66 0 31 1;
#X connect 67 0 32 1;
#X connect 68 0 33 1;
#X connect 69 0 34 1;
#X connect 70 0 35 1;
#X connect 71 0 36 1;
#X connect 72 0 37 1;
#X connect 73 0 38 1;
#X connect 74 0 39 1;
#X connect 75 0 40 0;
#X connect 75 0 41 0;
#X connect 75 0 43 0;
#X connect 75 0 44 0;
#X connect 75 0 45 0;
#X connect 75 0 46 0;
#X connect 75 0 47 0;
#X connect 75 0 48 0;
#X connect 75 0 49 0;
#X connect 75 0 50 0;
#X connect 76 0 75 0;
#X connect 77 0 91 1;
#X connect 89 0 92 0;
#X connect 90 0 77 0;
#X connect 91 0 29 0;
#X connect 91 0 88 0;
#X connect 92 0 90 0;
#X coords 0 -1 1 1 100 60 1 100 100;
