#N canvas 1008 909 661 474 10;
#X obj 104 122 vu 15 120 empty empty -1 -8 0 10 -66577 -1 1 0;
#X floatatom 210 31 5 0 0 0 - - -;
#X obj 212 -9 - 100;
#X obj 212 -44 env~ 64;
#X obj 195 95 max;
#X floatatom 195 132 5 0 0 0 - - -;
#X obj 195 177 - 0.01;
#X obj 195 54 tabread \$0_peak;
#X obj 73 -76 table \$0_peak;
#X obj 212 -76 inlet~;
#X obj 195 211 tabsend~ \$0_peak;
#X text 194 -97 input signal;
#X connect 1 0 4 1;
#X connect 2 0 1 0;
#X connect 2 0 0 0;
#X connect 2 0 7 0;
#X connect 3 0 2 0;
#X connect 4 0 0 1;
#X connect 4 0 5 0;
#X connect 5 0 6 0;
#X connect 6 0 10 0;
#X connect 7 0 4 0;
#X connect 9 0 3 0;
#X coords 0 -1 1 1 50 150 1 100 100;
