#N canvas 1186 304 1285 735 10;
#X obj 379 127 adc~;
#X obj 379 258 eq;
#X floatatom 726 218 5 0 0 1 tweeter_volume - -;
#X floatatom 256 184 5 0 0 0 woofer_volume - -;
#X floatatom 517 25 5 0 0 0 cross-over - -;
#X msg 517 -3 1000;
#X obj 517 -39 loadbang;
#X obj 377 181 lop~ 1000;
#X obj 477 148 hip~ 1000;
#X obj 391 455 hip~ 1;
#X obj 441 455 hip~ 1;
#X msg 364 -25 50;
#X floatatom 257 7 5 0 0 0 sub-bass - -;
#X floatatom 257 34 5 0 0 0 octave_1 - -;
#X floatatom 257 56 5 0 0 0 bass - -;
#X floatatom 258 79 5 0 0 0 upper-bass - -;
#X floatatom 258 101 5 0 0 0 lower-mid - -;
#X floatatom 258 122 5 0 0 0 mid - -;
#X floatatom 729 81 5 0 0 1 mid - -;
#X floatatom 730 105 5 0 0 1 upper-mid - -;
#X floatatom 730 128 5 0 0 1 presence - -;
#X floatatom 729 152 5 0 0 1 top - -;
#X floatatom 729 175 5 0 0 1 sizzle - -;
#X msg 667 -14 50;
#X obj 903 -14 loadbang;
#X obj 391 487 *~ 1;
#X obj 441 485 *~ 1;
#X floatatom 684 348 5 0 0 0 - - -;
#X text 468 470 comment;
#X obj 684 369 * 0.01;
#X obj 543 148 hip~ 1000;
#X obj 495 454 hip~ 1;
#X obj 495 487 *~ 1;
#X text 522 472 comment;
#X obj 479 259 stereo_eq;
#X msg 842 317 10;
#X msg 811 32 150;
#X msg 811 70 125;
#X msg 857 91 80;
#X msg 857 122 90;
#X msg 856 146 50;
#X msg 126 -9 250;
#X msg 126 99 250;
#X obj 47 -82 loadbang;
#X obj 729 259 loadbang;
#X obj 706 393 pack;
#X obj 586 402 line;
#X obj 543 183 hip~ 1000;
#X obj 478 184 hip~ 1000;
#X msg 728 302 1000;
#X msg 843 265 80;
#X msg 842 292 40;
#X text 878 266 loud;
#X text 879 293 medium;
#X text 879 319 quiet;
#X floatatom 945 365 5 0 0 0 threshold - -;
#X floatatom 947 394 5 0 0 0 compression_factor - -;
#X floatatom 946 423 5 0 0 0 reference - -;
#X floatatom 946 452 5 0 0 0 attack - -;
#X floatatom 945 478 5 0 0 0 release - -;
#X msg 122 140 150;
#X msg 884 179 50;
#X obj 412 627 dac~ 1 3 4;
#X msg 126 19 200;
#X msg 126 46 300;
#X msg 126 72 300;
#X msg 125 -39 250;
#X obj 167 467 multiband_compressor;
#X obj 175 248 env~ 1024;
#X floatatom 175 274 5 0 0 0 - - -;
#X obj 175 297 + 1;
#X obj 175 325 int;
#X floatatom 176 353 5 0 0 0 - - -;
#X floatatom 243 260 5 0 0 0 - - -;
#X obj 259 603 env~ 1024;
#X floatatom 259 632 5 0 0 0 - - -;
#X connect 0 0 7 0;
#X connect 0 0 8 0;
#X connect 0 0 68 0;
#X connect 0 1 30 0;
#X connect 0 1 7 0;
#X connect 0 1 68 0;
#X connect 1 0 67 0;
#X connect 2 0 34 12;
#X connect 3 0 1 11;
#X connect 4 0 7 1;
#X connect 4 0 8 1;
#X connect 4 0 30 1;
#X connect 5 0 4 0;
#X connect 6 0 5 0;
#X connect 7 0 1 0;
#X connect 8 0 48 0;
#X connect 9 0 25 0;
#X connect 10 0 26 0;
#X connect 11 0 12 0;
#X connect 11 0 13 0;
#X connect 11 0 14 0;
#X connect 11 0 15 0;
#X connect 11 0 16 0;
#X connect 11 0 17 0;
#X connect 12 0 1 1;
#X connect 13 0 1 2;
#X connect 14 0 1 3;
#X connect 15 0 1 4;
#X connect 16 0 1 5;
#X connect 17 0 1 6;
#X connect 18 0 34 7;
#X connect 19 0 34 8;
#X connect 20 0 34 9;
#X connect 21 0 34 10;
#X connect 22 0 34 11;
#X connect 23 0 18 0;
#X connect 23 0 19 0;
#X connect 23 0 20 0;
#X connect 23 0 21 0;
#X connect 23 0 22 0;
#X connect 24 0 36 0;
#X connect 24 0 37 0;
#X connect 24 0 38 0;
#X connect 24 0 39 0;
#X connect 24 0 40 0;
#X connect 24 0 61 0;
#X connect 25 0 62 0;
#X connect 25 0 74 0;
#X connect 26 0 62 1;
#X connect 27 0 29 0;
#X connect 29 0 45 0;
#X connect 30 0 47 0;
#X connect 31 0 32 0;
#X connect 32 0 62 2;
#X connect 34 0 10 0;
#X connect 34 1 31 0;
#X connect 35 0 27 0;
#X connect 36 0 18 0;
#X connect 37 0 19 0;
#X connect 38 0 20 0;
#X connect 39 0 21 0;
#X connect 40 0 22 0;
#X connect 41 0 13 0;
#X connect 42 0 17 0;
#X connect 43 0 66 0;
#X connect 43 0 41 0;
#X connect 43 0 63 0;
#X connect 43 0 64 0;
#X connect 43 0 65 0;
#X connect 43 0 42 0;
#X connect 43 0 60 0;
#X connect 44 0 49 0;
#X connect 44 0 35 0;
#X connect 45 0 46 0;
#X connect 46 0 25 1;
#X connect 46 0 26 1;
#X connect 46 0 32 1;
#X connect 47 0 34 1;
#X connect 48 0 34 0;
#X connect 49 0 45 1;
#X connect 50 0 27 0;
#X connect 51 0 27 0;
#X connect 60 0 3 0;
#X connect 61 0 2 0;
#X connect 63 0 14 0;
#X connect 64 0 15 0;
#X connect 65 0 16 0;
#X connect 66 0 12 0;
#X connect 67 0 9 0;
#X connect 68 0 69 0;
#X connect 69 0 70 0;
#X connect 70 0 71 0;
#X connect 71 0 72 0;
#X connect 72 0 67 1;
#X connect 72 0 67 2;
#X connect 72 0 67 3;
#X connect 72 0 67 4;
#X connect 72 0 67 5;
#X connect 72 0 67 6;
#X connect 73 0 70 1;
#X connect 74 0 75 0;
