#N canvas 677 199 1441 1141 10;
#X obj 379 127 adc~;
#X obj 371 350 eq;
#X floatatom 259 170 5 0 0 0 woofer_volume - -;
#X floatatom 517 25 5 0 0 0 cross-over - -;
#X msg 517 -3 1000;
#X obj 580 -45 loadbang;
#X obj 377 181 lop~ 1000;
#X obj 489 195 hip~ 1000;
#X obj 421 639 hip~ 1;
#X obj 471 639 hip~ 1;
#X msg 364 -25 50;
#X floatatom 257 7 5 0 0 0 sub-bass - -;
#X floatatom 257 34 5 0 0 0 octave_1 - -;
#X floatatom 257 56 5 0 0 0 bass - -;
#X floatatom 258 79 5 0 0 0 upper-bass - -;
#X floatatom 258 101 5 0 0 0 lower-mid - -;
#X floatatom 258 122 5 0 0 0 mid - -;
#X obj 421 671 *~ 1;
#X obj 471 669 *~ 1;
#X floatatom 684 348 5 0 0 0 - - -;
#X obj 684 369 * 0.01;
#X msg 842 317 10;
#X obj 47 -82 loadbang;
#X obj 729 259 loadbang;
#X obj 706 393 pack;
#X obj 605 423 line;
#X obj 489 230 hip~ 1000;
#X msg 728 302 1000;
#X text 878 266 loud;
#X text 879 293 medium;
#X text 879 319 quiet;
#X floatatom 1064 289 5 0 0 0 threshold - -;
#X floatatom 1066 318 5 0 0 0 compression_factor - -;
#X floatatom 1065 376 5 0 0 0 attack - -;
#X floatatom 1064 402 5 0 0 0 release - -;
#X obj 442 811 dac~ 1 3 4;
#X obj 289 787 env~ 1024;
#X floatatom 289 816 5 0 0 0 - - -;
#X msg 1149 254 5;
#X msg 1148 285 20;
#X msg 1147 319 20;
#X obj 1209 149 loadbang;
#X floatatom 1067 245 5 0 0 0 - - -;
#X msg 1156 184 1;
#X msg 1150 221 0;
#X msg 843 265 40;
#X msg 842 292 20;
#X msg 126 99 150;
#X msg 126 72 150;
#X msg 126 46 150;
#X msg 126 19 125;
#X msg 126 -9 150;
#X msg 125 -39 150;
#X obj 646 749 env~ 1024;
#X floatatom 647 794 5 0 0 0 - - -;
#X obj 487 917 eq;
#X msg 843 241 60;
#X text 878 242 11;
#X floatatom 572 266 5 0 0 0 - - -;
#X msg 122 140 40;
#X obj 520 370 *~ 1;
#X obj 541 336 * 0.1;
#X msg 574 225 10;
#X connect 0 0 6 0;
#X connect 0 0 7 0;
#X connect 0 1 6 0;
#X connect 0 1 7 0;
#X connect 1 0 8 0;
#X connect 2 0 1 11;
#X connect 3 0 6 1;
#X connect 3 0 7 1;
#X connect 4 0 3 0;
#X connect 5 0 4 0;
#X connect 5 0 62 0;
#X connect 6 0 1 0;
#X connect 7 0 26 0;
#X connect 8 0 17 0;
#X connect 9 0 18 0;
#X connect 10 0 11 0;
#X connect 10 0 12 0;
#X connect 10 0 13 0;
#X connect 10 0 14 0;
#X connect 10 0 15 0;
#X connect 10 0 16 0;
#X connect 11 0 1 1;
#X connect 12 0 1 2;
#X connect 13 0 1 3;
#X connect 14 0 1 4;
#X connect 15 0 1 5;
#X connect 16 0 1 6;
#X connect 17 0 36 0;
#X connect 17 0 35 0;
#X connect 17 0 55 0;
#X connect 18 0 53 0;
#X connect 18 0 55 0;
#X connect 18 0 35 1;
#X connect 19 0 20 0;
#X connect 20 0 24 0;
#X connect 21 0 19 0;
#X connect 22 0 52 0;
#X connect 22 0 51 0;
#X connect 22 0 50 0;
#X connect 22 0 49 0;
#X connect 22 0 48 0;
#X connect 22 0 47 0;
#X connect 22 0 59 0;
#X connect 23 0 27 0;
#X connect 23 0 21 0;
#X connect 24 0 25 0;
#X connect 25 0 17 1;
#X connect 25 0 18 1;
#X connect 26 0 60 0;
#X connect 27 0 24 1;
#X connect 36 0 37 0;
#X connect 38 0 32 0;
#X connect 39 0 33 0;
#X connect 40 0 34 0;
#X connect 41 0 44 0;
#X connect 41 0 38 0;
#X connect 41 0 39 0;
#X connect 41 0 40 0;
#X connect 41 0 43 0;
#X connect 43 0 42 0;
#X connect 44 0 31 0;
#X connect 45 0 19 0;
#X connect 46 0 19 0;
#X connect 47 0 16 0;
#X connect 48 0 15 0;
#X connect 49 0 14 0;
#X connect 50 0 13 0;
#X connect 51 0 12 0;
#X connect 52 0 11 0;
#X connect 53 0 54 0;
#X connect 56 0 19 0;
#X connect 58 0 61 0;
#X connect 59 0 2 0;
#X connect 60 0 9 0;
#X connect 61 0 60 1;
#X connect 62 0 58 0;
